<?xml version="1.0" standalone="no"?>
<!DOCTYPE svg PUBLIC "-//W3C//DTD SVG 20010904//EN"
 "http://www.w3.org/TR/2001/REC-SVG-20010904/DTD/svg10.dtd">
<svg version="1.0" xmlns="http://www.w3.org/2000/svg"
 width="621.000000pt" height="556.000000pt" viewBox="0 0 621.000000 556.000000"
 preserveAspectRatio="xMidYMid meet">

<g transform="translate(0.000000,556.000000) scale(0.100000,-0.100000)"
fill="#000000" stroke="none">
<path d="M0 2780 l0 -2780 3064 0 3064 0 41 55 41 54 0 2534 0 2533 -74 93
c-41 51 -113 137 -161 192 l-87 99 -2944 0 -2944 0 0 -2780z m3180 1602 c107
-24 160 -40 160 -51 0 -10 -166 -283 -695 -1141 -76 -124 -152 -249 -169 -277
-17 -29 -35 -53 -41 -53 -5 0 -19 16 -30 35 -11 19 -51 86 -89 148 -38 61
-100 164 -139 227 -39 63 -77 123 -85 133 -14 16 -48 17 -439 17 -232 0 -423
3 -423 6 0 3 14 31 30 61 276 502 755 831 1335 917 17 2 134 3 260 1 188 -2
247 -6 325 -23z m887 -472 c265 -259 425 -555 505 -935 20 -96 23 -139 23
-335 0 -196 -3 -239 -23 -335 -62 -296 -163 -517 -343 -755 -78 -103 -265
-281 -379 -362 -111 -78 -281 -170 -296 -160 -11 7 -48 66 -284 457 -70 116
-176 289 -235 385 -132 215 -165 270 -165 275 0 4 65 110 125 205 25 39 102
166 395 650 191 316 528 866 574 937 12 18 26 33 31 33 6 0 38 -27 72 -60z
m-2768 -615 c157 -261 480 -792 658 -1082 l45 -73 -109 -177 c-60 -98 -158
-257 -216 -353 -59 -96 -111 -182 -116 -190 -13 -19 -48 14 -138 128 -123 158
-222 344 -287 542 -67 207 -81 304 -80 565 1 201 3 231 28 345 28 124 75 276
116 367 25 56 21 59 99 -72z m1192 -1953 c26 -42 99 -162 163 -266 108 -176
128 -216 109 -216 -52 2 -226 23 -288 35 -113 23 -305 84 -305 98 0 7 51 95
113 197 148 242 140 230 152 230 5 0 31 -35 56 -78z"/>
</g>
</svg>
